<svg width="44" height="44" viewBox="0 0 44 44" fill="none" xmlns="http://www.w3.org/2000/svg">
<path d="M40.3333 22.0003C40.3333 11.8803 32.12 3.66699 22 3.66699C11.88 3.66699 3.66663 11.8803 3.66663 22.0003C3.66663 32.1203 11.88 40.3337 22 40.3337C32.12 40.3337 40.3333 32.1203 40.3333 22.0003ZM22 27.1153V23.8337H16.5C15.4916 23.8337 14.6666 23.0087 14.6666 22.0003C14.6666 20.992 15.4916 20.167 16.5 20.167H22V16.8853C22 16.0603 22.99 15.657 23.5583 16.2437L28.6733 21.3587C29.04 21.7253 29.04 22.2937 28.6733 22.6603L23.5583 27.7753C23.4291 27.902 23.2652 27.9876 23.0874 28.0213C22.9096 28.055 22.7258 28.0354 22.5591 27.9648C22.3925 27.8942 22.2504 27.7759 22.1509 27.6247C22.0514 27.4735 21.9989 27.2963 22 27.1153Z" fill="white"/>
</svg>
