<svg width="33" height="33" viewBox="0 0 33 33" fill="none" xmlns="http://www.w3.org/2000/svg">
<path d="M8.00802 4.99439L16.5 13.4864L24.948 5.03839C25.1346 4.83977 25.3594 4.68088 25.6089 4.57125C25.8584 4.46162 26.1275 4.4035 26.4 4.40039C26.9835 4.40039 27.5431 4.63218 27.9557 5.04476C28.3682 5.45734 28.6 6.01691 28.6 6.60039C28.6051 6.87012 28.5551 7.13804 28.453 7.38773C28.3508 7.63742 28.1987 7.8636 28.006 8.05239L19.448 16.5004L28.006 25.0584C28.3686 25.4131 28.5812 25.8935 28.6 26.4004C28.6 26.9839 28.3682 27.5434 27.9557 27.956C27.5431 28.3686 26.9835 28.6004 26.4 28.6004C26.1196 28.612 25.8399 28.5652 25.5786 28.463C25.3172 28.3607 25.08 28.2052 24.882 28.0064L16.5 19.5144L8.03002 27.9844C7.84413 28.1764 7.62206 28.3297 7.37662 28.4354C7.13118 28.5411 6.86724 28.5972 6.60002 28.6004C6.01654 28.6004 5.45696 28.3686 5.04438 27.956C4.6318 27.5434 4.40002 26.9839 4.40002 26.4004C4.39489 26.1307 4.44493 25.8627 4.54708 25.6131C4.64922 25.3634 4.80131 25.1372 4.99402 24.9484L13.552 16.5004L4.99402 7.94239C4.63142 7.58766 4.4188 7.1073 4.40002 6.60039C4.40002 6.01691 4.6318 5.45734 5.04438 5.04476C5.45696 4.63218 6.01654 4.40039 6.60002 4.40039C7.12802 4.40699 7.63402 4.62039 8.00802 4.99439Z" fill="#363535"/>
</svg>
