<svg width="54" height="54" viewBox="0 0 54 54" fill="none" xmlns="http://www.w3.org/2000/svg">
<path d="M9 40.5C8.3625 40.5 7.8285 40.284 7.398 39.852C6.966 39.4215 6.75 38.8875 6.75 38.25C6.75 37.6125 6.966 37.0785 7.398 36.648C7.8285 36.216 8.3625 36 9 36H45C45.6375 36 46.1715 36.216 46.602 36.648C47.034 37.0785 47.25 37.6125 47.25 38.25C47.25 38.8875 47.034 39.4215 46.602 39.852C46.1715 40.284 45.6375 40.5 45 40.5H9ZM9 29.25C8.3625 29.25 7.8285 29.034 7.398 28.602C6.966 28.1715 6.75 27.6375 6.75 27C6.75 26.3625 6.966 25.8277 7.398 25.3957C7.8285 24.9652 8.3625 24.75 9 24.75H45C45.6375 24.75 46.1715 24.9652 46.602 25.3957C47.034 25.8277 47.25 26.3625 47.25 27C47.25 27.6375 47.034 28.1715 46.602 28.602C46.1715 29.034 45.6375 29.25 45 29.25H9ZM9 18C8.3625 18 7.8285 17.7847 7.398 17.3542C6.966 16.9222 6.75 16.3875 6.75 15.75C6.75 15.1125 6.966 14.5778 7.398 14.1458C7.8285 13.7153 8.3625 13.5 9 13.5H45C45.6375 13.5 46.1715 13.7153 46.602 14.1458C47.034 14.5778 47.25 15.1125 47.25 15.75C47.25 16.3875 47.034 16.9222 46.602 17.3542C46.1715 17.7847 45.6375 18 45 18H9Z" fill="#424242"/>
</svg>
