<svg width="53" height="61" viewBox="0 0 53 61" fill="none" xmlns="http://www.w3.org/2000/svg">
<circle cx="26.5" cy="34.5" r="26.5" fill="#8C0019"/>
<g clip-path="url(#clip0_1_126)">
<g clip-path="url(#clip1_1_126)">
<path d="M19.5 28C18.3838 28 17.2785 28.2199 16.2472 28.647C15.2159 29.0742 14.2789 29.7003 13.4896 30.4896C12.7003 31.2789 12.0742 32.2159 11.647 33.2472C11.2199 34.2785 11 35.3838 11 36.5C11 37.6162 11.2199 38.7215 11.647 39.7528C12.0742 40.7841 12.7003 41.7211 13.4896 42.5104C14.2789 43.2997 15.2159 43.9258 16.2472 44.353C17.2785 44.7801 18.3838 45 19.5 45C20.6162 45 21.7215 44.7801 22.7528 44.353C23.7841 43.9258 24.7211 43.2997 25.5104 42.5104C26.2997 41.7211 26.9258 40.7841 27.353 39.7528C27.7801 38.7215 28 37.6162 28 36.5C28 35.3838 27.7801 34.2785 27.353 33.2472C26.9258 32.2159 26.2997 31.2789 25.5104 30.4896C24.7211 29.7003 23.7841 29.0742 22.7528 28.647C21.7215 28.2199 20.6162 28 19.5 28ZM33 29C32.4747 29 31.9546 29.194 31.4693 29.5709C30.984 29.9478 30.543 30.5003 30.1716 31.1967C29.8001 31.8931 29.5055 32.7199 29.3045 33.6299C29.1035 34.5398 29 35.5151 29 36.5C29 37.4849 29.1035 38.4602 29.3045 39.3701C29.5055 40.2801 29.8001 41.1069 30.1716 41.8033C30.543 42.4997 30.984 43.0522 31.4693 43.4291C31.9546 43.806 32.4747 44 33 44C33.5253 44 34.0454 43.806 34.5307 43.4291C35.016 43.0522 35.457 42.4997 35.8284 41.8033C36.1999 41.1069 36.4945 40.2801 36.6955 39.3701C36.8965 38.4602 37 37.4849 37 36.5C37 35.5151 36.8965 34.5398 36.6955 33.6299C36.4945 32.7199 36.1999 31.8931 35.8284 31.1967C35.457 30.5003 35.016 29.9478 34.5307 29.5709C34.0454 29.194 33.5253 29 33 29ZM39.5 30C39.1022 30 38.7206 30.6848 38.4393 31.9038C38.158 33.1228 38 34.7761 38 36.5C38 38.2239 38.158 39.8772 38.4393 41.0962C38.7206 42.3152 39.1022 43 39.5 43C39.8978 43 40.2794 42.3152 40.5607 41.0962C40.842 39.8772 41 38.2239 41 36.5C41 34.7761 40.842 33.1228 40.5607 31.9038C40.2794 30.6848 39.8978 30 39.5 30Z" fill="white"/>
</g>
</g>
<defs>
<clipPath id="clip0_1_126">
<rect width="50" height="49" fill="white"/>
</clipPath>
<clipPath id="clip1_1_126">
<rect width="30" height="30" fill="white" transform="translate(11 21)"/>
</clipPath>
</defs>
</svg>
