<svg width="53" height="53" viewBox="0 0 53 53" fill="none" xmlns="http://www.w3.org/2000/svg">
<path d="M26.5 0.09375C11.9166 0.09375 0.09375 11.9166 0.09375 26.5C0.09375 41.0834 11.9166 52.9062 26.5 52.9062C41.0834 52.9062 52.9062 41.0834 52.9062 26.5C52.9062 11.9166 41.0834 0.09375 26.5 0.09375ZM39.629 20.6358C39.6412 20.911 39.6463 21.1873 39.6463 21.4645C39.6463 29.9348 33.3605 39.7031 21.8627 39.7031C18.3323 39.7031 15.0468 38.6418 12.2802 36.8238C12.7698 36.8838 13.2684 36.9142 13.7722 36.9142C16.7013 36.9142 19.3967 35.8895 21.5356 34.17C18.8005 34.1182 16.492 32.2637 15.6968 29.7175C16.0777 29.7906 16.4697 29.8312 16.8719 29.8312C17.4427 29.8312 17.9962 29.753 18.5192 29.6068C15.6592 29.0187 13.5051 26.4279 13.5051 23.3221C13.5051 23.2947 13.5051 23.2693 13.5051 23.2419C14.348 23.7212 15.3119 24.0097 16.3366 24.0432C14.6598 22.8945 13.5569 20.9323 13.5569 18.7091C13.5569 17.533 13.8646 16.4321 14.4019 15.4845C17.4863 19.3632 22.0912 21.9165 27.2861 22.1826C27.1805 21.7154 27.1246 21.2248 27.1246 20.7221C27.1246 17.1827 29.9227 14.3125 33.3748 14.3125C35.1724 14.3125 36.7964 15.0915 37.937 16.3377C39.3619 16.0492 40.7005 15.516 41.907 14.7817C41.4409 16.2787 40.4506 17.5351 39.1588 18.3283C40.4242 18.1719 41.6288 17.8286 42.75 17.3177C41.9121 18.6025 40.8518 19.7309 39.629 20.6358Z" fill="#8C0019"/>
</svg>
